<svg xmlns="http://www.w3.org/2000/svg" width="33" height="21" viewBox="0 0 33 21" fill="none">
  <path d="M8.375 0.75C7.08207 0.75 5.84209 1.26361 4.92785 2.17785C4.01361 3.09209 3.5 4.33207 3.5 5.625H29.5C29.5 4.33207 28.9864 3.09209 28.0721 2.17785C27.1579 1.26361 25.9179 0.75 24.625 0.75H8.375ZM8.375 20.25C7.08207 20.25 5.84209 19.7364 4.92785 18.8221C4.01361 17.9079 3.5 16.6679 3.5 15.375H29.5C29.5 16.6679 28.9864 17.9079 28.0721 18.8221C27.1579 19.7364 25.9179 20.25 24.625 20.25H8.375ZM1.875 8.875C1.44402 8.875 1.0307 9.0462 0.725951 9.35095C0.421205 9.6557 0.25 10.069 0.25 10.5C0.25 10.931 0.421205 11.3443 0.725951 11.649C1.0307 11.9538 1.44402 12.125 1.875 12.125H31.125C31.556 12.125 31.9693 11.9538 32.274 11.649C32.5788 11.3443 32.75 10.931 32.75 10.5C32.75 10.069 32.5788 9.6557 32.274 9.35095C31.9693 9.0462 31.556 8.875 31.125 8.875H1.875Z" fill="#B70569"/>
</svg>