<svg width="20" height="12" viewBox="0 0 20 12" fill="none" xmlns="http://www.w3.org/2000/svg">
<path d="M5 0C4.20435 0 3.44129 0.316071 2.87868 0.87868C2.31607 1.44129 2 2.20435 2 3H18C18 2.20435 17.6839 1.44129 17.1213 0.87868C16.5587 0.316071 15.7956 0 15 0H5ZM5 12C4.20435 12 3.44129 11.6839 2.87868 11.1213C2.31607 10.5587 2 9.79565 2 9H18C18 9.79565 17.6839 10.5587 17.1213 11.1213C16.5587 11.6839 15.7956 12 15 12H5ZM1 5C0.734784 5 0.48043 5.10536 0.292893 5.29289C0.105357 5.48043 0 5.73478 0 6C0 6.26522 0.105357 6.51957 0.292893 6.70711C0.48043 6.89464 0.734784 7 1 7H19C19.2652 7 19.5196 6.89464 19.7071 6.70711C19.8946 6.51957 20 6.26522 20 6C20 5.73478 19.8946 5.48043 19.7071 5.29289C19.5196 5.10536 19.2652 5 19 5H1Z" fill="#B70569"/>
</svg>
